<svg xmlns="http://www.w3.org/2000/svg" viewBox="0 0 600 600" width="600" height="600">
  <defs>
    <!-- Metallic gradient for case -->
    <radialGradient id="caseGrad" cx="45%" cy="40%" r="55%">
      <stop offset="0%" stop-color="#e8d5a3"/>
      <stop offset="30%" stop-color="#c9a84c"/>
      <stop offset="60%" stop-color="#a07828"/>
      <stop offset="85%" stop-color="#7a5c1e"/>
      <stop offset="100%" stop-color="#5a4214"/>
    </radialGradient>
    <!-- Brass gradient for gears -->
    <radialGradient id="brassGrad" cx="40%" cy="35%" r="60%">
      <stop offset="0%" stop-color="#f0d878"/>
      <stop offset="40%" stop-color="#d4a832"/>
      <stop offset="70%" stop-color="#b8860b"/>
      <stop offset="100%" stop-color="#8b6914"/>
    </radialGradient>
    <!-- Dark brass for smaller gears -->
    <radialGradient id="darkBrass" cx="40%" cy="35%" r="60%">
      <stop offset="0%" stop-color="#d4b858"/>
      <stop offset="50%" stop-color="#a07828"/>
      <stop offset="100%" stop-color="#6b4f10"/>
    </radialGradient>
    <!-- Dial gradient -->
    <radialGradient id="dialGrad" cx="50%" cy="50%" r="50%">
      <stop offset="0%" stop-color="#fffef5"/>
      <stop offset="70%" stop-color="#f5f0dc"/>
      <stop offset="100%" stop-color="#e8dcc0"/>
    </radialGradient>
    <!-- Subtle shadow -->
    <filter id="shadow" x="-10%" y="-10%" width="130%" height="130%">
      <feDropShadow dx="3" dy="3" stdDeviation="5" flood-color="#3a2a08" flood-opacity="0.4"/>
    </filter>
    <!-- Inner shadow for case -->
    <filter id="innerShadow">
      <feOffset dx="0" dy="2"/>
      <feGaussianBlur stdDeviation="3"/>
      <feComposite operator="out" in="SourceGraphic"/>
      <feComponentTransfer><feFuncA type="linear" slope="0.3"/></feComponentTransfer>
      <feBlend in="SourceGraphic" mode="normal"/>
    </filter>
    <!-- Crown gradient -->
    <linearGradient id="crownGrad" x1="0" y1="0" x2="1" y2="1">
      <stop offset="0%" stop-color="#e8d5a3"/>
      <stop offset="50%" stop-color="#c9a84c"/>
      <stop offset="100%" stop-color="#7a5c1e"/>
    </linearGradient>
    <!-- Hairspring gradient -->
    <linearGradient id="springGrad" x1="0" y1="0" x2="1" y2="1">
      <stop offset="0%" stop-color="#8899aa"/>
      <stop offset="50%" stop-color="#aabbcc"/>
      <stop offset="100%" stop-color="#667788"/>
    </linearGradient>
    <!-- Chain link gradient -->
    <linearGradient id="chainGrad" x1="0" y1="0" x2="1" y2="1">
      <stop offset="0%" stop-color="#d4b858"/>
      <stop offset="50%" stop-color="#a07828"/>
      <stop offset="100%" stop-color="#7a5c1e"/>
    </linearGradient>
    <!-- Power reserve arc gradient -->
    <linearGradient id="prGrad" x1="0" y1="0" x2="1" y2="0">
      <stop offset="0%" stop-color="#cc3333"/>
      <stop offset="50%" stop-color="#cc8833"/>
      <stop offset="100%" stop-color="#33aa33"/>
    </linearGradient>
    <!-- Clip path for movement area (below dial) -->
    <clipPath id="movementClip">
      <rect x="100" y="300" width="400" height="250"/>
    </clipPath>
  </defs>

  <!-- Background -->
  <rect width="600" height="600" fill="#2a2218"/>

  <!-- Chain links (attached to crown, curving upward and outward) -->
  <g id="chain" fill="none" stroke="url(#chainGrad)" stroke-width="4" stroke-linecap="round">
    <!-- Link 1 -->
    <ellipse cx="300" cy="68" rx="10" ry="14" transform="rotate(-15,300,68)"/>
    <!-- Link 2 -->
    <ellipse cx="310" cy="48" rx="10" ry="14" transform="rotate(-25,310,48)"/>
    <!-- Link 3 -->
    <ellipse cx="325" cy="32" rx="10" ry="14" transform="rotate(-35,325,32)"/>
    <!-- Link 4 -->
    <ellipse cx="345" cy="20" rx="10" ry="14" transform="rotate(-45,345,20)"/>
  </g>
  <!-- Chain attachment ring -->
  <circle cx="300" cy="72" r="6" fill="none" stroke="#a07828" stroke-width="3"/>

  <!-- Crown (winder knob at 12 o'clock) -->
  <g id="crown">
    <!-- Stem extending into case -->
    <rect x="294" y="95" width="12" height="40" rx="2" fill="url(#crownGrad)" stroke="#7a5c1e" stroke-width="1"/>
    <!-- Crown knob -->
    <ellipse cx="300" cy="82" rx="16" ry="12" fill="url(#crownGrad)" stroke="#7a5c1e" stroke-width="1.5"/>
    <!-- Crown ridges -->
    <line x1="286" y1="78" x2="314" y2="78" stroke="#7a5c1e" stroke-width="0.8"/>
    <line x1="285" y1="82" x2="315" y2="82" stroke="#7a5c1e" stroke-width="0.8"/>
    <line x1="286" y1="86" x2="314" y2="86" stroke="#7a5c1e" stroke-width="0.8"/>
    <!-- Crown top detail -->
    <ellipse cx="300" cy="76" rx="8" ry="4" fill="#d4a832" stroke="#7a5c1e" stroke-width="0.5"/>
  </g>

  <!-- Outer case (radius ~200) -->
  <g id="case" filter="url(#shadow)">
    <!-- Main case body -->
    <circle cx="300" cy="300" r="200" fill="url(#caseGrad)" stroke="#5a4214" stroke-width="2"/>
    <!-- Bezel ring -->
    <circle cx="300" cy="300" r="195" fill="none" stroke="#d4b858" stroke-width="3"/>
    <circle cx="300" cy="300" r="190" fill="none" stroke="#a07828" stroke-width="1"/>
    <!-- Case inner edge -->
    <circle cx="300" cy="300" r="185" fill="none" stroke="#8b6914" stroke-width="1.5"/>
  </g>

  <!-- Dial (radius ~170) -->
  <g id="dial">
    <!-- Dial face -->
    <circle cx="300" cy="300" r="170" fill="url(#dialGrad)" stroke="#c9a84c" stroke-width="1.5"/>
    <!-- Dial inner ring -->
    <circle cx="300" cy="300" r="168" fill="none" stroke="#d4b858" stroke-width="0.5"/>
    <!-- Chapter ring (minute track outer edge) -->
    <circle cx="300" cy="300" r="155" fill="none" stroke="#8b7355" stroke-width="0.5"/>
  </g>

  <!-- 60 Minute tick marks at precise 6° intervals -->
  <g id="minute-ticks" stroke="#5a4a30" stroke-width="0.8">
    <!-- Generated at 6° intervals from 0° (12 o'clock) going clockwise -->
    <line x1="300" y1="130" x2="300" y2="136" transform="rotate(0,300,300)"/>
    <line x1="300" y1="130" x2="300" y2="136" transform="rotate(6,300,300)"/>
    <line x1="300" y1="130" x2="300" y2="136" transform="rotate(12,300,300)"/>
    <line x1="300" y1="130" x2="300" y2="136" transform="rotate(18,300,300)"/>
    <line x1="300" y1="130" x2="300" y2="136" transform="rotate(24,300,300)"/>
    <line x1="300" y1="130" x2="300" y2="136" transform="rotate(30,300,300)"/>
    <line x1="300" y1="130" x2="300" y2="136" transform="rotate(36,300,300)"/>
    <line x1="300" y1="130" x2="300" y2="136" transform="rotate(42,300,300)"/>
    <line x1="300" y1="130" x2="300" y2="136" transform="rotate(48,300,300)"/>
    <line x1="300" y1="130" x2="300" y2="136" transform="rotate(54,300,300)"/>
    <line x1="300" y1="130" x2="300" y2="136" transform="rotate(60,300,300)"/>
    <line x1="300" y1="130" x2="300" y2="136" transform="rotate(66,300,300)"/>
    <line x1="300" y1="130" x2="300" y2="136" transform="rotate(72,300,300)"/>
    <line x1="300" y1="130" x2="300" y2="136" transform="rotate(78,300,300)"/>
    <line x1="300" y1="130" x2="300" y2="136" transform="rotate(84,300,300)"/>
    <line x1="300" y1="130" x2="300" y2="136" transform="rotate(90,300,300)"/>
    <line x1="300" y1="130" x2="300" y2="136" transform="rotate(96,300,300)"/>
    <line x1="300" y1="130" x2="300" y2="136" transform="rotate(102,300,300)"/>
    <line x1="300" y1="130" x2="300" y2="136" transform="rotate(108,300,300)"/>
    <line x1="300" y1="130" x2="300" y2="136" transform="rotate(114,300,300)"/>
    <line x1="300" y1="130" x2="300" y2="136" transform="rotate(120,300,300)"/>
    <line x1="300" y1="130" x2="300" y2="136" transform="rotate(126,300,300)"/>
    <line x1="300" y1="130" x2="300" y2="136" transform="rotate(132,300,300)"/>
    <line x1="300" y1="130" x2="300" y2="136" transform="rotate(138,300,300)"/>
    <line x1="300" y1="130" x2="300" y2="136" transform="rotate(144,300,300)"/>
    <line x1="300" y1="130" x2="300" y2="136" transform="rotate(150,300,300)"/>
    <line x1="300" y1="130" x2="300" y2="136" transform="rotate(156,300,300)"/>
    <line x1="300" y1="130" x2="300" y2="136" transform="rotate(162,300,300)"/>
    <line x1="300" y1="130" x2="300" y2="136" transform="rotate(168,300,300)"/>
    <line x1="300" y1="130" x2="300" y2="136" transform="rotate(174,300,300)"/>
    <line x1="300" y1="130" x2="300" y2="136" transform="rotate(180,300,300)"/>
    <line x1="300" y1="130" x2="300" y2="136" transform="rotate(186,300,300)"/>
    <line x1="300" y1="130" x2="300" y2="136" transform="rotate(192,300,300)"/>
    <line x1="300" y1="130" x2="300" y2="136" transform="rotate(198,300,300)"/>
    <line x1="300" y1="130" x2="300" y2="136" transform="rotate(204,300,300)"/>
    <line x1="300" y1="130" x2="300" y2="136" transform="rotate(210,300,300)"/>
    <line x1="300" y1="130" x2="300" y2="136" transform="rotate(216,300,300)"/>
    <line x1="300" y1="130" x2="300" y2="136" transform="rotate(222,300,300)"/>
    <line x1="300" y1="130" x2="300" y2="136" transform="rotate(228,300,300)"/>
    <line x1="300" y1="130" x2="300" y2="136" transform="rotate(234,300,300)"/>
    <line x1="300" y1="130" x2="300" y2="136" transform="rotate(240,300,300)"/>
    <line x1="300" y1="130" x2="300" y2="136" transform="rotate(246,300,300)"/>
    <line x1="300" y1="130" x2="300" y2="136" transform="rotate(252,300,300)"/>
    <line x1="300" y1="130" x2="300" y2="136" transform="rotate(258,300,300)"/>
    <line x1="300" y1="130" x2="300" y2="136" transform="rotate(264,300,300)"/>
    <line x1="300" y1="130" x2="300" y2="136" transform="rotate(270,300,300)"/>
    <line x1="300" y1="130" x2="300" y2="136" transform="rotate(276,300,300)"/>
    <line x1="300" y1="130" x2="300" y2="136" transform="rotate(282,300,300)"/>
    <line x1="300" y1="130" x2="300" y2="136" transform="rotate(288,300,300)"/>
    <line x1="300" y1="130" x2="300" y2="136" transform="rotate(294,300,300)"/>
    <line x1="300" y1="130" x2="300" y2="136" transform="rotate(300,300,300)"/>
    <line x1="300" y1="130" x2="300" y2="136" transform="rotate(306,300,300)"/>
    <line x1="300" y1="130" x2="300" y2="136" transform="rotate(312,300,300)"/>
    <line x1="300" y1="130" x2="300" y2="136" transform="rotate(318,300,300)"/>
    <line x1="300" y1="130" x2="300" y2="136" transform="rotate(324,300,300)"/>
    <line x1="300" y1="130" x2="300" y2="136" transform="rotate(330,300,300)"/>
    <line x1="300" y1="130" x2="300" y2="136" transform="rotate(336,300,300)"/>
    <line x1="300" y1="130" x2="300" y2="136" transform="rotate(342,300,300)"/>
    <line x1="300" y1="130" x2="300" y2="136" transform="rotate(348,300,300)"/>
    <line x1="300" y1="130" x2="300" y2="136" transform="rotate(354,300,300)"/>
  </g>

  <!-- Hour markers (thick at 12,3,6,9; thin at others) -->
  <g id="hour-markers">
    <!-- Thick markers at 12, 3, 6, 9 -->
    <line x1="300" y1="135" x2="300" y2="155" stroke="#5a4a30" stroke-width="3.5" stroke-linecap="round"/>
    <line x1="300" y1="135" x2="300" y2="155" stroke="#5a4a30" stroke-width="3.5" stroke-linecap="round" transform="rotate(90,300,300)"/>
    <line x1="300" y1="135" x2="300" y2="155" stroke="#5a4a30" stroke-width="3.5" stroke-linecap="round" transform="rotate(180,300,300)"/>
    <line x1="300" y1="135" x2="300" y2="155" stroke="#5a4a30" stroke-width="3.5" stroke-linecap="round" transform="rotate(270,300,300)"/>
    <!-- Thin markers at other hours -->
    <line x1="300" y1="138" x2="300" y2="152" stroke="#5a4a30" stroke-width="1.5" stroke-linecap="round" transform="rotate(30,300,300)"/>
    <line x1="300" y1="138" x2="300" y2="152" stroke="#5a4a30" stroke-width="1.5" stroke-linecap="round" transform="rotate(60,300,300)"/>
    <line x1="300" y1="138" x2="300" y2="152" stroke="#5a4a30" stroke-width="1.5" stroke-linecap="round" transform="rotate(120,300,300)"/>
    <line x1="300" y1="138" x2="300" y2="152" stroke="#5a4a30" stroke-width="1.5" stroke-linecap="round" transform="rotate(150,300,300)"/>
    <line x1="300" y1="138" x2="300" y2="152" stroke="#5a4a30" stroke-width="1.5" stroke-linecap="round" transform="rotate(210,300,300)"/>
    <line x1="300" y1="138" x2="300" y2="152" stroke="#5a4a30" stroke-width="1.5" stroke-linecap="round" transform="rotate(240,300,300)"/>
    <line x1="300" y1="138" x2="300" y2="152" stroke="#5a4a30" stroke-width="1.5" stroke-linecap="round" transform="rotate(300,300,300)"/>
    <line x1="300" y1="138" x2="300" y2="152" stroke="#5a4a30" stroke-width="1.5" stroke-linecap="round" transform="rotate(330,300,300)"/>
  </g>

  <!-- Roman numerals -->
  <g id="roman-numerals" font-family="Georgia, 'Times New Roman', serif" font-size="14" fill="#3a2a18" text-anchor="middle" dominant-baseline="central">
    <text x="300" y="175">XII</text>
    <text x="345" y="190">I</text>
    <text x="378" y="220">II</text>
    <text x="395" y="260">III</text>
    <text x="395" y="340">IV</text>
    <text x="378" y="380">V</text>
    <text x="345" y="410">VI</text>
    <text x="300" y="425">VII</text>
    <text x="255" y="410">VIII</text>
    <text x="222" y="380">IX</text>
    <text x="205" y="340">X</text>
    <text x="205" y="260">XI</text>
  </g>

  <!-- Sub-dial: Power reserve indicator at 12 o'clock (radius ~25) -->
  <g id="power-reserve">
    <circle cx="300" cy="210" r="25" fill="#f8f4e4" stroke="#8b7355" stroke-width="1"/>
    <circle cx="300" cy="210" r="22" fill="none" stroke="#c9a84c" stroke-width="0.5"/>
    <!-- Arc track for power reserve (~216° filled = 60%) -->
    <!-- Arc from -108° to +108° (216° total) -->
    <path d="M 318.1 193.4 A 20 20 0 1 1 318.1 226.6" fill="none" stroke="#33aa33" stroke-width="3" stroke-linecap="round"/>
    <!-- Empty arc portion -->
    <path d="M 318.1 226.6 A 20 20 0 0 1 318.1 193.4" fill="none" stroke="#ddd" stroke-width="3"/>
    <!-- Power reserve needle (pointing to ~60% mark) -->
    <line x1="300" y1="210" x2="312" y2="198" stroke="#cc3333" stroke-width="1.5" stroke-linecap="round"/>
    <circle cx="300" cy="210" r="3" fill="#5a4a30"/>
    <!-- Labels -->
    <text x="300" y="200" font-family="Georgia, serif" font-size="6" fill="#5a4a30" text-anchor="middle">POWER</text>
    <text x="300" y="208" font-family="Georgia, serif" font-size="5" fill="#5a4a30" text-anchor="middle">RESERVE</text>
    <!-- Small tick marks -->
    <line x1="300" y1="188" x2="300" y2="191" stroke="#5a4a30" stroke-width="0.5"/>
    <line x1="322" y1="210" x2="319" y2="210" stroke="#5a4a30" stroke-width="0.5"/>
    <line x1="300" y1="232" x2="300" y2="229" stroke="#5a4a30" stroke-width="0.5"/>
  </g>

  <!-- Sub-dial: Small seconds at 6 o'clock (radius ~30) -->
  <g id="small-seconds">
    <circle cx="300" cy="395" r="30" fill="#f8f4e4" stroke="#8b7355" stroke-width="1"/>
    <circle cx="300" cy="395" r="27" fill="none" stroke="#c9a84c" stroke-width="0.5"/>
    <!-- Small seconds tick marks -->
    <line x1="300" y1="368" x2="300" y2="372" stroke="#5a4a30" stroke-width="0.8" transform="rotate(0,300,395)"/>
    <line x1="300" y1="368" x2="300" y2="371" stroke="#5a4a30" stroke-width="0.5" transform="rotate(30,300,395)"/>
    <line x1="300" y1="368" x2="300" y2="371" stroke="#5a4a30" stroke-width="0.5" transform="rotate(60,300,395)"/>
    <line x1="300" y1="368" x2="300" y2="372" stroke="#5a4a30" stroke-width="0.8" transform="rotate(90,300,395)"/>
    <line x1="300" y1="368" x2="300" y2="371" stroke="#5a4a30" stroke-width="0.5" transform="rotate(120,300,395)"/>
    <line x1="300" y1="368" x2="300" y2="371" stroke="#5a4a30" stroke-width="0.5" transform="rotate(150,300,395)"/>
    <line x1="300" y1="368" x2="300" y2="372" stroke="#5a4a30" stroke-width="0.8" transform="rotate(180,300,395)"/>
    <line x1="300" y1="368" x2="300" y2="371" stroke="#5a4a30" stroke-width="0.5" transform="rotate(210,300,395)"/>
    <line x1="300" y1="368" x2="300" y2="371" stroke="#5a4a30" stroke-width="0.5" transform="rotate(240,300,395)"/>
    <line x1="300" y1="368" x2="300" y2="372" stroke="#5a4a30" stroke-width="0.8" transform="rotate(270,300,395)"/>
    <line x1="300" y1="368" x2="300" y2="371" stroke="#5a4a30" stroke-width="0.5" transform="rotate(300,300,395)"/>
    <line x1="300" y1="368" x2="300" y2="371" stroke="#5a4a30" stroke-width="0.5" transform="rotate(330,300,395)"/>
    <!-- Small seconds hand (pointing near 10 o'clock position) -->
    <line x1="300" y1="395" x2="288" y2="378" stroke="#cc3333" stroke-width="1" stroke-linecap="round"/>
    <circle cx="300" cy="395" r="2.5" fill="#5a4a30"/>
    <!-- Label -->
    <text x="300" y="388" font-family="Georgia, serif" font-size="5" fill="#5a4a30" text-anchor="middle">SECONDS</text>
  </g>

  <!-- MAIN HANDS - all pivoting at exact center (300, 300) -->
  <g id="hands">
    <!-- Hour hand (shorter, thicker) pointing near 10 o'clock -->
    <!-- 10 o'clock = 300° from 12 o'clock (clockwise) -->
    <line x1="300" y1="300" x2="265" y2="235" stroke="#3a2a18" stroke-width="5" stroke-linecap="round"/>
    <!-- Hour hand counterweight -->
    <line x1="300" y1="300" x2="330" y2="352" stroke="#3a2a18" stroke-width="4" stroke-linecap="round"/>

    <!-- Minute hand (longer, thinner) pointing near 2 o'clock -->
    <!-- 2 o'clock = 60° from 12 o'clock (clockwise) -->
    <line x1="300" y1="300" x2="375" y2="235" stroke="#3a2a18" stroke-width="3" stroke-linecap="round"/>
    <!-- Minute hand counterweight -->
    <line x1="300" y1="300" x2="255" y2="365" stroke="#3a2a18" stroke-width="2.5" stroke-linecap="round"/>

    <!-- Second hand (thin, red) pointing near 7 o'clock -->
    <!-- 7 o'clock = 210° from 12 o'clock (clockwise) -->
    <line x1="300" y1="300" x2="225" y2="425" stroke="#cc3333" stroke-width="1.2" stroke-linecap="round"/>
    <!-- Second hand counterweight -->
    <line x1="300" y1="300" x2="340" y2="270" stroke="#cc3333" stroke-width="1" stroke-linecap="round"/>

    <!-- Center pivot cap -->
    <circle cx="300" cy="300" r="5" fill="#5a4a30" stroke="#3a2a18" stroke-width="1"/>
    <circle cx="300" cy="300" r="2.5" fill="#c9a84c"/>
  </g>

  <!-- MOVEMENT - visible gears below the dial (bottom half, y > 300) -->
  <g id="movement" clip-path="url(#movementClip)">
    <!-- Background plate -->
    <rect x="100" y="300" width="400" height="250" fill="#3a3020" opacity="0.6"/>

    <!-- Large gear (center-left, below dial) -->
    <g id="gear-large" transform="translate(230, 430)">
      <!-- Gear body -->
      <circle cx="0" cy="0" r="55" fill="url(#brassGrad)" stroke="#7a5c1e" stroke-width="1.5"/>
      <!-- Gear inner detail -->
      <circle cx="0" cy="0" r="45" fill="none" stroke="#a07828" stroke-width="0.8"/>
      <circle cx="0" cy="0" r="35" fill="none" stroke="#a07828" stroke-width="0.5"/>
      <!-- Gear teeth (20 teeth) -->
      <g fill="#b8860b" stroke="#7a5c1e" stroke-width="0.5">
        <rect x="-5" y="-62" width="10" height="14" rx="1" transform="rotate(0)"/>
        <rect x="-5" y="-62" width="10" height="14" rx="1" transform="rotate(18)"/>
        <rect x="-5" y="-62" width="10" height="14" rx="1" transform="rotate(36)"/>
        <rect x="-5" y="-62" width="10" height="14" rx="1" transform="rotate(54)"/>
        <rect x="-5" y="-62" width="10" height="14" rx="1" transform="rotate(72)"/>
        <rect x="-5" y="-62" width="10" height="14" rx="1" transform="rotate(90)"/>
        <rect x="-5" y="-62" width="10" height="14" rx="1" transform="rotate(108)"/>
        <rect x="-5" y="-62" width="10" height="14" rx="1" transform="rotate(126)"/>
        <rect x="-5" y="-62" width="10" height="14" rx="1" transform="rotate(144)"/>
        <rect x="-5" y="-62" width="10" height="14" rx="1" transform="rotate(162)"/>
        <rect x="-5" y="-62" width="10" height="14" rx="1" transform="rotate(180)"/>
        <rect x="-5" y="-62" width="10" height="14" rx="1" transform="rotate(198)"/>
        <rect x="-5" y="-62" width="10" height="14" rx="1" transform="rotate(216)"/>
        <rect x="-5" y="-62" width="10" height="14" rx="1" transform="rotate(234)"/>
        <rect x="-5" y="-62" width="10" height="14" rx="1" transform="rotate(252)"/>
        <rect x="-5" y="-62" width="10" height="14" rx="1" transform="rotate(270)"/>
        <rect x="-5" y="-62" width="10" height="14" rx="1" transform="rotate(288)"/>
        <rect x="-5" y="-62" width="10" height="14" rx="1" transform="rotate(306)"/>
        <rect x="-5" y="-62" width="10" height="14" rx="1" transform="rotate(324)"/>
        <rect x="-5" y="-62" width="10" height="14" rx="1" transform="rotate(342)"/>
      </g>
      <!-- Gear spokes -->
      <line x1="-40" y1="0" x2="40" y2="0" stroke="#7a5c1e" stroke-width="3"/>
      <line x1="0" y1="-40" x2="0" y2="40" stroke="#7a5c1e" stroke-width="3"/>
      <line x1="-28" y1="-28" x2="28" y2="28" stroke="#7a5c1e" stroke-width="2.5"/>
      <line x1="-28" y1="28" x2="28" y2="-28" stroke="#7a5c1e" stroke-width="2.5"/>
      <!-- Center hole -->
      <circle cx="0" cy="0" r="8" fill="#3a3020" stroke="#7a5c1e" stroke-width="1"/>
      <circle cx="0" cy="0" r="4" fill="#5a4a30"/>
    </g>

    <!-- Medium gear (center-right, overlapping large gear) -->
    <g id="gear-medium" transform="translate(370, 410)">
      <!-- Gear body -->
      <circle cx="0" cy="0" r="38" fill="url(#darkBrass)" stroke="#6b4f10" stroke-width="1.2"/>
      <!-- Gear inner detail -->
      <circle cx="0" cy="0" r="30" fill="none" stroke="#8b6914" stroke-width="0.8"/>
      <!-- Gear teeth (16 teeth) -->
      <g fill="#a07828" stroke="#6b4f10" stroke-width="0.5">
        <rect x="-4" y="-44" width="8" height="12" rx="1" transform="rotate(0)"/>
        <rect x="-4" y="-44" width="8" height="12" rx="1" transform="rotate(22.5)"/>
        <rect x="-4" y="-44" width="8" height="12" rx="1" transform="rotate(45)"/>
        <rect x="-4" y="-44" width="8" height="12" rx="1" transform="rotate(67.5)"/>
        <rect x="-4" y="-44" width="8" height="12" rx="1" transform="rotate(90)"/>
        <rect x="-4" y="-44" width="8" height="12" rx="1" transform="rotate(112.5)"/>
        <rect x="-4" y="-44" width="8" height="12" rx="1" transform="rotate(135)"/>
        <rect x="-4" y="-44" width="8" height="12" rx="1" transform="rotate(157.5)"/>
        <rect x="-4" y="-44" width="8" height="12" rx="1" transform="rotate(180)"/>
        <rect x="-4" y="-44" width="8" height="12" rx="1" transform="rotate(202.5)"/>
        <rect x="-4" y="-44" width="8" height="12" rx="1" transform="rotate(225)"/>
        <rect x="-4" y="-44" width="8" height="12" rx="1" transform="rotate(247.5)"/>
        <rect x="-4" y="-44" width="8" height="12" rx="1" transform="rotate(270)"/>
        <rect x="-4" y="-44" width="8" height="12" rx="1" transform="rotate(292.5)"/>
        <rect x="-4" y="-44" width="8" height="12" rx="1" transform="rotate(315)"/>
        <rect x="-4" y="-44" width="8" height="12" rx="1" transform="rotate(337.5)"/>
      </g>
      <!-- Gear spokes -->
      <line x1="-25" y1="0" x2="25" y2="0" stroke="#6b4f10" stroke-width="2.5"/>
      <line x1="0" y1="-25" x2="0" y2="25" stroke="#6b4f10" stroke-width="2.5"/>
      <line x1="-18" y1="-18" x2="18" y2="18" stroke="#6b4f10" stroke-width="2"/>
      <line x1="-18" y1="18" x2="18" y2="-18" stroke="#6b4f10" stroke-width="2"/>
      <!-- Center hole -->
      <circle cx="0" cy="0" r="6" fill="#3a3020" stroke="#6b4f10" stroke-width="1"/>
      <circle cx="0" cy="0" r="3" fill="#5a4a30"/>
    </g>

    <!-- Small gear (bottom-left, overlapping large gear) -->
    <g id="gear-small" transform="translate(180, 500)">
      <!-- Gear body -->
      <circle cx="0" cy="0" r="25" fill="url(#brassGrad)" stroke="#7a5c1e" stroke-width="1"/>
      <!-- Gear inner detail -->
      <circle cx="0" cy="0" r="18" fill="none" stroke="#a07828" stroke-width="0.6"/>
      <!-- Gear teeth (12 teeth) -->
      <g fill="#b8860b" stroke="#7a5c1e" stroke-width="0.4">
        <rect x="-3.5" y="-30" width="7" height="10" rx="1" transform="rotate(0)"/>
        <rect x="-3.5" y="-30" width="7" height="10" rx="1" transform="rotate(30)"/>
        <rect x="-3.5" y="-30" width="7" height="10" rx="1" transform="rotate(60)"/>
        <rect x="-3.5" y="-30" width="7" height="10" rx="1" transform="rotate(90)"/>
        <rect x="-3.5" y="-30" width="7" height="10" rx="1" transform="rotate(120)"/>
        <rect x="-3.5" y="-30" width="7" height="10" rx="1" transform="rotate(150)"/>
        <rect x="-3.5" y="-30" width="7" height="10" rx="1" transform="rotate(180)"/>
        <rect x="-3.5" y="-30" width="7" height="10" rx="1" transform="rotate(210)"/>
        <rect x="-3.5" y="-30" width="7" height="10" rx="1" transform="rotate(240)"/>
        <rect x="-3.5" y="-30" width="7" height="10" rx="1" transform="rotate(270)"/>
        <rect x="-3.5" y="-30" width="7" height="10" rx="1" transform="rotate(300)"/>
        <rect x="-3.5" y="-30" width="7" height="10" rx="1" transform="rotate(330)"/>
      </g>
      <!-- Gear spokes -->
      <line x1="-16" y1="0" x2="16" y2="0" stroke="#7a5c1e" stroke-width="2"/>
      <line x1="0" y1="-16" x2="0" y2="16" stroke="#7a5c1e" stroke-width="2"/>
      <!-- Center hole -->
      <circle cx="0" cy="0" r="5" fill="#3a3020" stroke="#7a5c1e" stroke-width="0.8"/>
      <circle cx="0" cy="0" r="2.5" fill="#5a4a30"/>
    </g>

    <!-- Additional small gear (bottom-center) -->
    <g id="gear-extra" transform="translate(310, 510)">
      <circle cx="0" cy="0" r="20" fill="url(#darkBrass)" stroke="#6b4f10" stroke-width="0.8"/>
      <circle cx="0" cy="0" r="14" fill="none" stroke="#8b6914" stroke-width="0.5"/>
      <!-- 10 teeth -->
      <g fill="#a07828" stroke="#6b4f10" stroke-width="0.4">
        <rect x="-3" y="-24" width="6" height="9" rx="1" transform="rotate(0)"/>
        <rect x="-3" y="-24" width="6" height="9" rx="1" transform="rotate(36)"/>
        <rect x="-3" y="-24" width="6" height="9" rx="1" transform="rotate(72)"/>
        <rect x="-3" y="-24" width="6" height="9" rx="1" transform="rotate(108)"/>
        <rect x="-3" y="-24" width="6" height="9" rx="1" transform="rotate(144)"/>
        <rect x="-3" y="-24" width="6" height="9" rx="1" transform="rotate(180)"/>
        <rect x="-3" y="-24" width="6" height="9" rx="1" transform="rotate(216)"/>
        <rect x="-3" y="-24" width="6" height="9" rx="1" transform="rotate(252)"/>
        <rect x="-3" y="-24" width="6" height="9" rx="1" transform="rotate(288)"/>
        <rect x="-3" y="-24" width="6" height="9" rx="1" transform="rotate(324)"/>
      </g>
      <line x1="-12" y1="0" x2="12" y2="0" stroke="#6b4f10" stroke-width="1.5"/>
      <line x1="0" y1="-12" x2="0" y2="12" stroke="#6b4f10" stroke-width="1.5"/>
      <circle cx="0" cy="0" r="4" fill="#3a3020" stroke="#6b4f10" stroke-width="0.6"/>
      <circle cx="0" cy="0" r="2" fill="#5a4a30"/>
    </g>

    <!-- Balance wheel with hairspring (bottom-right area, x=400-500, y=400-500) -->
    <g id="balance-wheel" transform="translate(450, 460)">
      <!-- Balance wheel outer rim (radius ~40, distinct brass ring) -->
      <circle cx="0" cy="0" r="40" fill="none" stroke="url(#brassGrad)" stroke-width="5"/>
      <!-- Rim inner edge -->
      <circle cx="0" cy="0" r="38" fill="none" stroke="#a07828" stroke-width="0.8"/>
      <!-- Rim outer edge highlight -->
      <circle cx="0" cy="0" r="42" fill="none" stroke="#d4b858" stroke-width="0.8" opacity="0.6"/>
      <!-- Balance wheel spokes (4) -->
      <line x1="-38" y1="0" x2="38" y2="0" stroke="#a07828" stroke-width="2.5"/>
      <line x1="0" y1="-38" x2="0" y2="38" stroke="#a07828" stroke-width="2.5"/>
      <line x1="-27" y1="-27" x2="27" y2="27" stroke="#a07828" stroke-width="2"/>
      <line x1="-27" y1="27" x2="27" y2="-27" stroke="#a07828" stroke-width="2"/>
      <!-- Timing screws on rim (8 evenly spaced) -->
      <circle cx="0" cy="-40" r="3" fill="#d4b858" stroke="#7a5c1e" stroke-width="0.5"/>
      <circle cx="0" cy="40" r="3" fill="#d4b858" stroke="#7a5c1e" stroke-width="0.5"/>
      <circle cx="-40" cy="0" r="3" fill="#d4b858" stroke="#7a5c1e" stroke-width="0.5"/>
      <circle cx="40" cy="0" r="3" fill="#d4b858" stroke="#7a5c1e" stroke-width="0.5"/>
      <circle cx="-28" cy="-28" r="2.5" fill="#d4b858" stroke="#7a5c1e" stroke-width="0.4"/>
      <circle cx="28" cy="28" r="2.5" fill="#d4b858" stroke="#7a5c1e" stroke-width="0.4"/>
      <circle cx="-28" cy="28" r="2.5" fill="#d4b858" stroke="#7a5c1e" stroke-width="0.4"/>
      <circle cx="28" cy="-28" r="2.5" fill="#d4b858" stroke="#7a5c1e" stroke-width="0.4"/>

      <!-- Center jewel bearing -->
      <circle cx="0" cy="0" r="6" fill="#3a3020" stroke="#a07828" stroke-width="1"/>
      <circle cx="0" cy="0" r="2.5" fill="#cc4444"/>

      <!-- Distinct coiled hairspring spiral (separate expanding path, clearly visible) -->
      <g fill="none" stroke="#7799bb" stroke-width="1.5" stroke-linecap="round">
        <!-- Continuous expanding Archimedean-style spiral: 5.5 turns, outer radius ~22 -->
        <path d="M 0 -2
                 A 2 2 0 0 0 2 0
                 A 4 4 0 0 0 0 4
                 A 6 6 0 0 0 -6 0
                 A 8 8 0 0 0 0 -8
                 A 10 10 0 0 0 10 0
                 A 12 12 0 0 0 0 12
                 A 14 14 0 0 0 -14 0
                 A 16 16 0 0 0 0 -16
                 A 18 18 0 0 0 18 0
                 A 20 20 0 0 0 0 20
                 A 22 22 0 0 0 -22 0"/>
      </g>
      <!-- Hairspring stud pin (outer end attachment point on rim) -->
      <circle cx="-22" cy="0" r="2.5" fill="#8899aa" stroke="#667788" stroke-width="0.8"/>
      <!-- Small stud bracket -->
      <line x1="-22" y1="0" x2="-30" y2="0" stroke="#8899aa" stroke-width="1.5" stroke-linecap="round"/>
      <circle cx="-30" cy="0" r="2" fill="#8899aa" stroke="#667788" stroke-width="0.5"/>
    </g>

    <!-- Bridge plate (decorative movement plate) -->
    <path d="M 150 340 Q 200 320 300 325 Q 400 320 450 340 L 450 550 L 150 550 Z"
          fill="#4a4030" stroke="#6b5a30" stroke-width="1" opacity="0.7"/>
    <!-- Bridge decoration lines -->
    <path d="M 170 350 Q 250 340 350 345 Q 420 340 440 350" fill="none" stroke="#8b7355" stroke-width="0.5" opacity="0.5"/>
    <path d="M 170 540 Q 250 535 350 538 Q 420 535 440 540" fill="none" stroke="#8b7355" stroke-width="0.5" opacity="0.5"/>
    <!-- Jewel bearings on bridge -->
    <circle cx="230" cy="430" r="4" fill="#cc4444" stroke="#8b6914" stroke-width="0.8"/>
    <circle cx="370" cy="410" r="3.5" fill="#cc4444" stroke="#8b6914" stroke-width="0.8"/>
    <circle cx="180" cy="500" r="3" fill="#cc4444" stroke="#8b6914" stroke-width="0.6"/>
    <circle cx="310" cy="510" r="2.5" fill="#cc4444" stroke="#8b6914" stroke-width="0.6"/>
    <circle cx="450" cy="460" r="5" fill="#cc4444" stroke="#8b6914" stroke-width="0.8"/>
  </g>

  <!-- Glass crystal (subtle reflection) -->
  <g id="crystal" opacity="0.08">
    <ellipse cx="280" cy="250" rx="80" ry="60" fill="white" transform="rotate(-15,280,250)"/>
    <ellipse cx="340" cy="350" rx="40" ry="30" fill="white" transform="rotate(20,340,350)"/>
  </g>

</svg>