<svg xmlns="http://www.w3.org/2000/svg" viewBox="0 0 600 600" width="600" height="600">
  <defs>
    <!-- ==================== FILTERS ==================== -->
    <!-- Drop shadow for 3D depth -->
    <filter id="dropShadow" x="-20%" y="-20%" width="150%" height="150%">
      <feDropShadow dx="4" dy="6" stdDeviation="6" flood-color="#000000" flood-opacity="0.45"/>
    </filter>
    <!-- Inner shadow for dial depth -->
    <filter id="innerShadow" x="-10%" y="-10%" width="120%" height="120%">
      <feOffset dx="0" dy="2"/>
      <feGaussianBlur stdDeviation="3" result="offset-blur"/>
      <feComposite operator="out" in="SourceGraphic" in2="offset-blur" result="inverse"/>
      <feFlood flood-color="#000000" flood-opacity="0.35" result="color"/>
      <feComposite operator="in" in="color" in2="inverse" result="shadow"/>
      <feComposite operator="over" in="shadow" in2="SourceGraphic"/>
    </filter>
    <!-- Subtle hand shadow -->
    <filter id="handShadow" x="-30%" y="-30%" width="160%" height="160%">
      <feDropShadow dx="2" dy="3" stdDeviation="2.5" flood-color="#000000" flood-opacity="0.35"/>
    </filter>
    <!-- Gear shadow -->
    <filter id="gearShadow" x="-20%" y="-20%" width="140%" height="140%">
      <feDropShadow dx="1" dy="1" stdDeviation="1.5" flood-color="#000000" flood-opacity="0.3"/>
    </filter>
    <!-- Glass glare filter -->
    <filter id="glareBlur">
      <feGaussianBlur stdDeviation="8"/>
    </filter>

    <!-- ==================== GRADIENTS ==================== -->
    <!-- Outer case: polished gold -->
    <linearGradient id="caseGrad" x1="0%" y1="0%" x2="100%" y2="100%">
      <stop offset="0%" stop-color="#f7e8c0"/>
      <stop offset="15%" stop-color="#f0d890"/>
      <stop offset="35%" stop-color="#d4a843"/>
      <stop offset="55%" stop-color="#c9952e"/>
      <stop offset="75%" stop-color="#a07830"/>
      <stop offset="100%" stop-color="#7a5c1a"/>
    </linearGradient>

    <!-- Case bevel highlight -->
    <linearGradient id="caseBevel" x1="0%" y1="0%" x2="100%" y2="100%">
      <stop offset="0%" stop-color="#f7ecd5"/>
      <stop offset="50%" stop-color="#d4b87a"/>
      <stop offset="100%" stop-color="#a07830"/>
    </linearGradient>

    <!-- Dial: cream with warm patina -->
    <radialGradient id="dialGrad" cx="48%" cy="45%" r="55%">
      <stop offset="0%" stop-color="#fdf9f0"/>
      <stop offset="40%" stop-color="#f8f0dc"/>
      <stop offset="70%" stop-color="#f0e4c8"/>
      <stop offset="90%" stop-color="#e4d4a8"/>
      <stop offset="100%" stop-color="#d4c4a0"/>
    </radialGradient>

    <!-- Dial edge patina -->
    <radialGradient id="dialPatina" cx="50%" cy="50%" r="50%">
      <stop offset="0%" stop-color="transparent"/>
      <stop offset="75%" stop-color="transparent"/>
      <stop offset="100%" stop-color="#b89860" stop-opacity="0.18"/>
    </radialGradient>

    <!-- Blued steel for hands -->
    <linearGradient id="bluedSteel" x1="0%" y1="0%" x2="100%" y2="100%">
      <stop offset="0%" stop-color="#1e3050"/>
      <stop offset="30%" stop-color="#2c4a7c"/>
      <stop offset="60%" stop-color="#1e3560"/>
      <stop offset="100%" stop-color="#0d1b33"/>
    </linearGradient>

    <!-- Gold for center pin -->
    <linearGradient id="goldHand" x1="0%" y1="0%" x2="100%" y2="100%">
      <stop offset="0%" stop-color="#f5e6c8"/>
      <stop offset="40%" stop-color="#d4a843"/>
      <stop offset="70%" stop-color="#c9952e"/>
      <stop offset="100%" stop-color="#8b6914"/>
    </linearGradient>

    <!-- Silver gear -->
    <linearGradient id="silverGear" x1="0%" y1="0%" x2="100%" y2="100%">
      <stop offset="0%" stop-color="#e8e8e8"/>
      <stop offset="50%" stop-color="#c0c0c0"/>
      <stop offset="100%" stop-color="#888888"/>
    </linearGradient>

    <!-- Brass gear -->
    <linearGradient id="brassGear" x1="0%" y1="0%" x2="100%" y2="100%">
      <stop offset="0%" stop-color="#f0d68a"/>
      <stop offset="50%" stop-color="#d4a843"/>
      <stop offset="100%" stop-color="#a07830"/>
    </linearGradient>

    <!-- Copper gear -->
    <linearGradient id="copperGear" x1="0%" y1="0%" x2="100%" y2="100%">
      <stop offset="0%" stop-color="#e8a87c"/>
      <stop offset="50%" stop-color="#c87040"/>
      <stop offset="100%" stop-color="#8b4513"/>
    </linearGradient>

    <!-- Chain link gradient -->
    <linearGradient id="chainGrad" x1="0%" y1="0%" x2="100%" y2="0%">
      <stop offset="0%" stop-color="#c9952e"/>
      <stop offset="30%" stop-color="#f5e6c8"/>
      <stop offset="50%" stop-color="#d4a843"/>
      <stop offset="70%" stop-color="#f5e6c8"/>
      <stop offset="100%" stop-color="#a07830"/>
    </linearGradient>

    <!-- Crown gradient -->
    <linearGradient id="crownGrad" x1="0%" y1="0%" x2="100%" y2="100%">
      <stop offset="0%" stop-color="#f5e6c8"/>
      <stop offset="30%" stop-color="#d4a843"/>
      <stop offset="70%" stop-color="#b8922e"/>
      <stop offset="100%" stop-color="#7a5c1a"/>
    </linearGradient>

    <!-- Sub-dial background -->
    <radialGradient id="subDialGrad" cx="50%" cy="50%" r="50%">
      <stop offset="0%" stop-color="#faf4e4"/>
      <stop offset="100%" stop-color="#ddd0b0"/>
    </radialGradient>

    <!-- Aperture (exhibition window) background -->
    <radialGradient id="apertureGrad" cx="50%" cy="50%" r="50%">
      <stop offset="0%" stop-color="#1a1a1a"/>
      <stop offset="100%" stop-color="#080808"/>
    </radialGradient>

    <!-- ==================== CLIP PATHS ==================== -->
    <clipPath id="dialClip">
      <circle cx="300" cy="300" r="150"/>
    </clipPath>
    <clipPath id="apertureClip">
      <circle cx="230" cy="370" r="45"/>
    </clipPath>

    <!-- ==================== GEAR TOOTH DEFINITIONS ==================== -->
    <g id="gear12teeth">
      <rect x="296" y="-18" width="8" height="36" rx="2" fill="url(#brassGear)"/>
      <rect x="296" y="-18" width="8" height="36" rx="2" fill="url(#brassGear)" transform="rotate(30, 300, 300)"/>
      <rect x="296" y="-18" width="8" height="36" rx="2" fill="url(#brassGear)" transform="rotate(60, 300, 300)"/>
      <rect x="296" y="-18" width="8" height="36" rx="2" fill="url(#brassGear)" transform="rotate(90, 300, 300)"/>
      <rect x="296" y="-18" width="8" height="36" rx="2" fill="url(#brassGear)" transform="rotate(120, 300, 300)"/>
      <rect x="296" y="-18" width="8" height="36" rx="2" fill="url(#brassGear)" transform="rotate(150, 300, 300)"/>
      <rect x="296" y="-18" width="8" height="36" rx="2" fill="url(#brassGear)" transform="rotate(180, 300, 300)"/>
      <rect x="296" y="-18" width="8" height="36" rx="2" fill="url(#brassGear)" transform="rotate(210, 300, 300)"/>
      <rect x="296" y="-18" width="8" height="36" rx="2" fill="url(#brassGear)" transform="rotate(240, 300, 300)"/>
      <rect x="296" y="-18" width="8" height="36" rx="2" fill="url(#brassGear)" transform="rotate(270, 300, 300)"/>
      <rect x="296" y="-18" width="8" height="36" rx="2" fill="url(#brassGear)" transform="rotate(300, 300, 300)"/>
      <rect x="296" y="-18" width="8" height="36" rx="2" fill="url(#brassGear)" transform="rotate(330, 300, 300)"/>
    </g>

    <g id="gear8teeth">
      <rect x="297" y="-14" width="6" height="28" rx="1.5" fill="url(#silverGear)"/>
      <rect x="297" y="-14" width="6" height="28" rx="1.5" fill="url(#silverGear)" transform="rotate(45, 300, 300)"/>
      <rect x="297" y="-14" width="6" height="28" rx="1.5" fill="url(#silverGear)" transform="rotate(90, 300, 300)"/>
      <rect x="297" y="-14" width="6" height="28" rx="1.5" fill="url(#silverGear)" transform="rotate(135, 300, 300)"/>
      <rect x="297" y="-14" width="6" height="28" rx="1.5" fill="url(#silverGear)" transform="rotate(180, 300, 300)"/>
      <rect x="297" y="-14" width="6" height="28" rx="1.5" fill="url(#silverGear)" transform="rotate(225, 300, 300)"/>
      <rect x="297" y="-14" width="6" height="28" rx="1.5" fill="url(#silverGear)" transform="rotate(270, 300, 300)"/>
      <rect x="297" y="-14" width="6" height="28" rx="1.5" fill="url(#silverGear)" transform="rotate(315, 300, 300)"/>
    </g>

    <g id="gear6teeth">
      <rect x="297.5" y="-12" width="5" height="24" rx="1.5" fill="url(#copperGear)"/>
      <rect x="297.5" y="-12" width="5" height="24" rx="1.5" fill="url(#copperGear)" transform="rotate(60, 300, 300)"/>
      <rect x="297.5" y="-12" width="5" height="24" rx="1.5" fill="url(#copperGear)" transform="rotate(120, 300, 300)"/>
      <rect x="297.5" y="-12" width="5" height="24" rx="1.5" fill="url(#copperGear)" transform="rotate(180, 300, 300)"/>
      <rect x="297.5" y="-12" width="5" height="24" rx="1.5" fill="url(#copperGear)" transform="rotate(240, 300, 300)"/>
      <rect x="297.5" y="-12" width="5" height="24" rx="1.5" fill="url(#copperGear)" transform="rotate(300, 300, 300)"/>
    </g>
  </defs>

  <!-- ==================== BACKGROUND SHADOW ==================== -->
  <ellipse cx="300" cy="500" rx="130" ry="18" fill="#000000" opacity="0.12"/>

  <!-- ==================== CHAIN ==================== -->
  <g id="chain" filter="url(#dropShadow)">
    <!-- Chain links extending upward from bow -->
    <ellipse cx="300" cy="50" rx="11" ry="17" fill="none" stroke="url(#chainGrad)" stroke-width="2.5"/>
    <ellipse cx="300" cy="80" rx="11" ry="17" fill="none" stroke="url(#chainGrad)" stroke-width="2.5"/>
    <ellipse cx="300" cy="110" rx="11" ry="17" fill="none" stroke="url(#chainGrad)" stroke-width="2.5"/>
    <ellipse cx="300" cy="140" rx="11" ry="17" fill="none" stroke="url(#chainGrad)" stroke-width="2.5"/>
    <ellipse cx="300" cy="170" rx="11" ry="17" fill="none" stroke="url(#chainGrad)" stroke-width="2.5"/>
    <!-- Chain highlights for metallic sheen -->
    <ellipse cx="300" cy="50" rx="9" ry="15" fill="none" stroke="#f5e6c8" stroke-width="0.5" opacity="0.4"/>
    <ellipse cx="300" cy="80" rx="9" ry="15" fill="none" stroke="#f5e6c8" stroke-width="0.5" opacity="0.4"/>
    <ellipse cx="300" cy="110" rx="9" ry="15" fill="none" stroke="#f5e6c8" stroke-width="0.5" opacity="0.4"/>
    <ellipse cx="300" cy="140" rx="9" ry="15" fill="none" stroke="#f5e6c8" stroke-width="0.5" opacity="0.4"/>
    <ellipse cx="300" cy="170" rx="9" ry="15" fill="none" stroke="#f5e6c8" stroke-width="0.5" opacity="0.4"/>
  </g>

  <!-- ==================== BOW (CHAIN RING) ==================== -->
  <g id="bow" filter="url(#dropShadow)">
    <path d="M 272 128 C 272 82, 328 82, 328 128" fill="none" stroke="url(#caseGrad)" stroke-width="7" stroke-linecap="round"/>
    <path d="M 275 128 C 275 88, 325 88, 325 128" fill="none" stroke="#f5e6c8" stroke-width="1.2" stroke-linecap="round" opacity="0.35"/>
    <!-- Bow attachment to case -->
    <rect x="288" y="122" width="24" height="8" rx="2" fill="url(#caseGrad)" stroke="#8b6914" stroke-width="0.8"/>
  </g>

  <!-- ==================== CROWN / WINDER ==================== -->
  <g id="crown" filter="url(#dropShadow)">
    <!-- Crown base ring -->
    <rect x="284" y="120" width="32" height="10" rx="3" fill="url(#crownGrad)" stroke="#8b6914" stroke-width="1"/>
    <!-- Crown grip ridges -->
    <line x1="289" y1="120" x2="289" y2="130" stroke="#8b6914" stroke-width="0.7"/>
    <line x1="294" y1="120" x2="294" y2="130" stroke="#8b6914" stroke-width="0.7"/>
    <line x1="299" y1="120" x2="299" y2="130" stroke="#8b6914" stroke-width="0.7"/>
    <line x1="304" y1="120" x2="304" y2="130" stroke="#8b6914" stroke-width="0.7"/>
    <line x1="309" y1="120" x2="309" y2="130" stroke="#8b6914" stroke-width="0.7"/>
    <!-- Crown top cap -->
    <ellipse cx="300" cy="120" rx="16" ry="4.5" fill="url(#crownGrad)" stroke="#8b6914" stroke-width="1"/>
    <ellipse cx="300" cy="119" rx="13" ry="3.5" fill="#f5e6c8" opacity="0.25"/>
    <!-- Crown emblem dot -->
    <circle cx="300" cy="119" r="1.5" fill="#d4a843"/>
  </g>

  <!-- ==================== OUTER CASE ==================== -->
  <g id="case" filter="url(#dropShadow)">
    <!-- Main case body -->
    <circle cx="300" cy="300" r="185" fill="url(#caseGrad)" stroke="#7a5c1a" stroke-width="2"/>
    <!-- Outer bevel highlight -->
    <circle cx="300" cy="300" r="182" fill="none" stroke="#f7ecd5" stroke-width="2.5" opacity="0.4"/>
    <!-- Inner bevel shadow -->
    <circle cx="300" cy="300" r="182" fill="none" stroke="#a07830" stroke-width="1" opacity="0.3"/>
    <!-- Case edge ring -->
    <circle cx="300" cy="300" r="178" fill="none" stroke="#c9952e" stroke-width="1.5"/>
    <!-- Decorative engraved ring -->
    <circle cx="300" cy="300" r="174" fill="none" stroke="#c9952e" stroke-width="0.5" stroke-dasharray="3 2" opacity="0.5"/>
    <!-- Inner case wall -->
    <circle cx="300" cy="300" r="168" fill="none" stroke="#a07830" stroke-width="2"/>
    <!-- Polished highlight arc (top-left) -->
    <path d="M 140 200 A 185 185 0 0 1 200 130" fill="none" stroke="#f7ecd5" stroke-width="3" opacity="0.25" stroke-linecap="round"/>
  </g>

  <!-- ==================== DIAL ==================== -->
  <g id="dial" filter="url(#innerShadow)">
    <!-- Main dial face -->
    <circle cx="300" cy="300" r="155" fill="url(#dialGrad)" stroke="#c9a84c" stroke-width="1.5"/>
    <!-- Patina overlay -->
    <circle cx="300" cy="300" r="155" fill="url(#dialPatina)"/>
    <!-- Dial edge shadow -->
    <circle cx="300" cy="300" r="153" fill="none" stroke="#b8a070" stroke-width="2" opacity="0.25"/>
    <!-- Guilloché concentric circles -->
    <circle cx="300" cy="300" r="145" fill="none" stroke="#d4c4a0" stroke-width="0.3" opacity="0.35"/>
    <circle cx="300" cy="300" r="135" fill="none" stroke="#d4c4a0" stroke-width="0.3" opacity="0.35"/>
    <circle cx="300" cy="300" r="125" fill="none" stroke="#d4c4a0" stroke-width="0.3" opacity="0.35"/>
    <circle cx="300" cy="300" r="115" fill="none" stroke="#d4c4a0" stroke-width="0.3" opacity="0.35"/>
    <circle cx="300" cy="300" r="105" fill="none" stroke="#d4c4a0" stroke-width="0.3" opacity="0.35"/>
    <circle cx="300" cy="300" r="95" fill="none" stroke="#d4c4a0" stroke-width="0.3" opacity="0.35"/>
    <circle cx="300" cy="300" r="85" fill="none" stroke="#d4c4a0" stroke-width="0.3" opacity="0.35"/>
    <!-- Brand text -->
    <text x="300" y="225" text-anchor="middle" font-family="Georgia, 'Times New Roman', serif" font-size="15" fill="#4a3a20" font-weight="bold" letter-spacing="3">VINTAGE</text>
    <text x="300" y="240" text-anchor="middle" font-family="Georgia, 'Times New Roman', serif" font-size="9" fill="#6a5a40" letter-spacing="4">GENÈVE</text>
    <text x="300" y="340" text-anchor="middle" font-family="Georgia, 'Times New Roman', serif" font-size="7" fill="#7a6a50" letter-spacing="2">SWISS MADE</text>
  </g>

  <!-- ==================== MINUTE TICK MARKS ==================== -->
  <g id="minuteTicks" clip-path="url(#dialClip)">
    <!-- 60 minute ticks around the dial perimeter -->
    <line x1="300" y1="152" x2="300" y2="162" stroke="#2a2015" stroke-width="1.5" stroke-linecap="round" transform="rotate(0, 300, 300)"/>
    <line x1="300" y1="155" x2="300" y2="161" stroke="#2a2015" stroke-width="0.7" stroke-linecap="round" transform="rotate(6, 300, 300)"/>
    <line x1="300" y1="155" x2="300" y2="161" stroke="#2a2015" stroke-width="0.7" stroke-linecap="round" transform="rotate(12, 300, 300)"/>
    <line x1="300" y1="155" x2="300" y2="161" stroke="#2a2015" stroke-width="0.7" stroke-linecap="round" transform="rotate(18, 300, 300)"/>
    <line x1="300" y1="155" x2="300" y2="161" stroke="#2a2015" stroke-width="0.7" stroke-linecap="round" transform="rotate(24, 300, 300)"/>
    <line x1="300" y1="152" x2="300" y2="162" stroke="#2a2015" stroke-width="1.5" stroke-linecap="round" transform="rotate(30, 300, 300)"/>
    <line x1="300" y1="155" x2="300" y2="161" stroke="#2a2015" stroke-width="0.7" stroke-linecap="round" transform="rotate(36, 300, 300)"/>
    <line x1="300" y1="155" x2="300" y2="161" stroke="#2a2015" stroke-width="0.7" stroke-linecap="round" transform="rotate(42, 300, 300)"/>
    <line x1="300" y1="155" x2="300" y2="161" stroke="#2a2015" stroke-width="0.7" stroke-linecap="round" transform="rotate(48, 300, 300)"/>
    <line x1="300" y1="155" x2="300" y2="161" stroke="#2a2015" stroke-width="0.7" stroke-linecap="round" transform="rotate(54, 300, 300)"/>
    <line x1="300" y1="152" x2="300" y2="162" stroke="#2a2015" stroke-width="1.5" stroke-linecap="round" transform="rotate(60, 300, 300)"/>
    <line x1="300" y1="155" x2="300" y2="161" stroke="#2a2015" stroke-width="0.7" stroke-linecap="round" transform="rotate(66, 300, 300)"/>
    <line x1="300" y1="155" x2="300" y2="161" stroke="#2a2015" stroke-width="0.7" stroke-linecap="round" transform="rotate(72, 300, 300)"/>
    <line x1="300" y1="155" x2="300" y2="161" stroke="#2a2015" stroke-width="0.7" stroke-linecap="round" transform="rotate(78, 300, 300)"/>
    <line x1="300" y1="155" x2="300" y2="161" stroke="#2a2015" stroke-width="0.7" stroke-linecap="round" transform="rotate(84, 300, 300)"/>
    <line x1="300" y1="152" x2="300" y2="162" stroke="#2a2015" stroke-width="1.5" stroke-linecap="round" transform="rotate(90, 300, 300)"/>
    <line x1="300" y1="155" x2="300" y2="161" stroke="#2a2015" stroke-width="0.7" stroke-linecap="round" transform="rotate(96, 300, 300)"/>
    <line x1="300" y1="155" x2="300" y2="161" stroke="#2a2015" stroke-width="0.7" stroke-linecap="round" transform="rotate(102, 300, 300)"/>
    <line x1="300" y1="155" x2="300" y2="161" stroke="#2a2015" stroke-width="0.7" stroke-linecap="round" transform="rotate(108, 300, 300)"/>
    <line x1="300" y1="155" x2="300" y2="161" stroke="#2a2015" stroke-width="0.7" stroke-linecap="round" transform="rotate(114, 300, 300)"/>
    <line x1="300" y1="152" x2="300" y2="162" stroke="#2a2015" stroke-width="1.5" stroke-linecap="round" transform="rotate(120, 300, 300)"/>
    <line x1="300" y1="155" x2="300" y2="161" stroke="#2a2015" stroke-width="0.7" stroke-linecap="round" transform="rotate(126, 300, 300)"/>
    <line x1="300" y1="155" x2="300" y2="161" stroke="#2a2015" stroke-width="0.7" stroke-linecap="round" transform="rotate(132, 300, 300)"/>
    <line x1="300" y1="155" x2="300" y2="161" stroke="#2a2015" stroke-width="0.7" stroke-linecap="round" transform="rotate(138, 300, 300)"/>
    <line x1="300" y1="155" x2="300" y2="161" stroke="#2a2015" stroke-width="0.7" stroke-linecap="round" transform="rotate(144, 300, 300)"/>
    <line x1="300" y1="152" x2="300" y2="162" stroke="#2a2015" stroke-width="1.5" stroke-linecap="round" transform="rotate(150, 300, 300)"/>
    <line x1="300" y1="155" x2="300" y2="161" stroke="#2a2015" stroke-width="0.7" stroke-linecap="round" transform="rotate(156, 300, 300)"/>
    <line x1="300" y1="155" x2="300" y2="161" stroke="#2a2015" stroke-width="0.7" stroke-linecap="round" transform="rotate(162, 300, 300)"/>
    <line x1="300" y1="155" x2="300" y2="161" stroke="#2a2015" stroke-width="0.7" stroke-linecap="round" transform="rotate(168, 300, 300)"/>
    <line x1="300" y1="155" x2="300" y2="161" stroke="#2a2015" stroke-width="0.7" stroke-linecap="round" transform="rotate(174, 300, 300)"/>
    <line x1="300" y1="152" x2="300" y2="162" stroke="#2a2015" stroke-width="1.5" stroke-linecap="round" transform="rotate(180, 300, 300)"/>
    <line x1="300" y1="155" x2="300" y2="161" stroke="#2a2015" stroke-width="0.7" stroke-linecap="round" transform="rotate(186, 300, 300)"/>
    <line x1="300" y1="155" x2="300" y2="161" stroke="#2a2015" stroke-width="0.7" stroke-linecap="round" transform="rotate(192, 300, 300)"/>
    <line x1="300" y1="155" x2="300" y2="161" stroke="#2a2015" stroke-width="0.7" stroke-linecap="round" transform="rotate(198, 300, 300)"/>
    <line x1="300" y1="155" x2="300" y2="161" stroke="#2a2015" stroke-width="0.7" stroke-linecap="round" transform="rotate(204, 300, 300)"/>
    <line x1="300" y1="152" x2="300" y2="162" stroke="#2a2015" stroke-width="1.5" stroke-linecap="round" transform="rotate(210, 300, 300)"/>
    <line x1="300" y1="155" x2="300" y2="161" stroke="#2a2015" stroke-width="0.7" stroke-linecap="round" transform="rotate(216, 300, 300)"/>
    <line x1="300" y1="155" x2="300" y2="161" stroke="#2a2015" stroke-width="0.7" stroke-linecap="round" transform="rotate(222, 300, 300)"/>
    <line x1="300" y1="155" x2="300" y2="161" stroke="#2a2015" stroke-width="0.7" stroke-linecap="round" transform="rotate(228, 300, 300)"/>
    <line x1="300" y1="155" x2="300" y2="161" stroke="#2a2015" stroke-width="0.7" stroke-linecap="round" transform="rotate(234, 300, 300)"/>
    <line x1="300" y1="152" x2="300" y2="162" stroke="#2a2015" stroke-width="1.5" stroke-linecap="round" transform="rotate(240, 300, 300)"/>
    <line x1="300" y1="155" x2="300" y2="161" stroke="#2a2015" stroke-width="0.7" stroke-linecap="round" transform="rotate(246, 300, 300)"/>
    <line x1="300" y1="155" x2="300" y2="161" stroke="#2a2015" stroke-width="0.7" stroke-linecap="round" transform="rotate(252, 300, 300)"/>
    <line x1="300" y1="155" x2="300" y2="161" stroke="#2a2015" stroke-width="0.7" stroke-linecap="round" transform="rotate(258, 300, 300)"/>
    <line x1="300" y1="155" x2="300" y2="161" stroke="#2a2015" stroke-width="0.7" stroke-linecap="round" transform="rotate(264, 300, 300)"/>
    <line x1="300" y1="152" x2="300" y2="162" stroke="#2a2015" stroke-width="1.5" stroke-linecap="round" transform="rotate(270, 300, 300)"/>
    <line x1="300" y1="155" x2="300" y2="161" stroke="#2a2015" stroke-width="0.7" stroke-linecap="round" transform="rotate(276, 300, 300)"/>
    <line x1="300" y1="155" x2="300" y2="161" stroke="#2a2015" stroke-width="0.7" stroke-linecap="round" transform="rotate(282, 300, 300)"/>
    <line x1="300" y1="155" x2="300" y2="161" stroke="#2a2015" stroke-width="0.7" stroke-linecap="round" transform="rotate(288, 300, 300)"/>
    <line x1="300" y1="155" x2="300" y2="161" stroke="#2a2015" stroke-width="0.7" stroke-linecap="round" transform="rotate(294, 300, 300)"/>
    <line x1="300" y1="152" x2="300" y2="162" stroke="#2a2015" stroke-width="1.5" stroke-linecap="round" transform="rotate(300, 300, 300)"/>
    <line x1="300" y1="155" x2="300" y2="161" stroke="#2a2015" stroke-width="0.7" stroke-linecap="round" transform="rotate(306, 300, 300)"/>
    <line x1="300" y1="155" x2="300" y2="161" stroke="#2a2015" stroke-width="0.7" stroke-linecap="round" transform="rotate(312, 300, 300)"/>
    <line x1="300" y1="155" x2="300" y2="161" stroke="#2a2015" stroke-width="0.7" stroke-linecap="round" transform="rotate(318, 300, 300)"/>
    <line x1="300" y1="155" x2="300" y2="161" stroke="#2a2015" stroke-width="0.7" stroke-linecap="round" transform="rotate(324, 300, 300)"/>
    <line x1="300" y1="152" x2="300" y2="162" stroke="#2a2015" stroke-width="1.5" stroke-linecap="round" transform="rotate(330, 300, 300)"/>
    <line x1="300" y1="155" x2="300" y2="161" stroke="#2a2015" stroke-width="0.7" stroke-linecap="round" transform="rotate(336, 300, 300)"/>
    <line x1="300" y1="155" x2="300" y2="161" stroke="#2a2015" stroke-width="0.7" stroke-linecap="round" transform="rotate(342, 300, 300)"/>
    <line x1="300" y1="155" x2="300" y2="161" stroke="#2a2015" stroke-width="0.7" stroke-linecap="round" transform="rotate(348, 300, 300)"/>
    <line x1="300" y1="155" x2="300" y2="161" stroke="#2a2015" stroke-width="0.7" stroke-linecap="round" transform="rotate(354, 300, 300)"/>
  </g>

  <!-- ==================== ROMAN NUMERALS (HOUR MARKERS) ==================== -->
  <g id="romanNumerals" font-family="Georgia, 'Times New Roman', serif" font-size="22" fill="#2a2015" text-anchor="middle" dominant-baseline="central">
    <text x="300" y="165">XII</text>
    <text x="368" y="173">I</text>
    <text x="424" y="208">II</text>
    <text x="452" y="278">III</text>
    <text x="438" y="353">IV</text>
    <text x="398" y="416">V</text>
    <text x="328" y="450">VI</text>
    <text x="272" y="450">VII</text>
    <text x="202" y="416">VIII</text>
    <text x="162" y="353">IX</text>
    <text x="148" y="278">X</text>
    <text x="176" y="208">XI</text>
  </g>

  <!-- ==================== EXHIBITION WINDOW (MOVEMENT DETAILS) ==================== -->
  <g id="aperture" clip-path="url(#apertureClip)">
    <!-- Exhibition window background -->
    <circle cx="230" cy="370" r="45" fill="url(#apertureGrad)" stroke="#8b6914" stroke-width="2"/>
    <circle cx="230" cy="370" r="43" fill="none" stroke="#c9952e" stroke-width="0.5" opacity="0.4"/>

    <!-- Large brass gear -->
    <g transform="translate(230, 370)" filter="url(#gearShadow)">
      <g transform="rotate(15)">
        <use href="#gear12teeth" transform="scale(0.8) translate(57.5, 93)"/>
      </g>
      <circle cx="0" cy="0" r="14" fill="url(#brassGear)" stroke="#a07830" stroke-width="1"/>
      <circle cx="0" cy="0" r="10" fill="none" stroke="#8b6914" stroke-width="0.5"/>
      <circle cx="0" cy="0" r="4" fill="#8b6914"/>
      <line x1="-14" y1="0" x2="14" y2="0" stroke="#a07830" stroke-width="1.5"/>
      <line x1="0" y1="-14" x2="0" y2="14" stroke="#a07830" stroke-width="1.5"/>
      <line x1="-10" y1="-10" x2="10" y2="10" stroke="#a07830" stroke-width="1"/>
      <line x1="10" y1="-10" x2="-10" y2="10" stroke="#a07830" stroke-width="1"/>
    </g>

    <!-- Silver meshing gear -->
    <g transform="translate(265, 345)" filter="url(#gearShadow)">
      <g transform="rotate(22.5)">
        <use href="#gear8teeth" transform="scale(0.7) translate(56.5, 95.5)"/>
      </g>
      <circle cx="0" cy="0" r="10" fill="url(#silverGear)" stroke="#888" stroke-width="1"/>
      <circle cx="0" cy="0" r="7" fill="none" stroke="#666" stroke-width="0.5"/>
      <circle cx="0" cy="0" r="3" fill="#666"/>
      <line x1="-10" y1="0" x2="10" y2="0" stroke="#888" stroke-width="1"/>
      <line x1="0" y1="-10" x2="0" y2="10" stroke="#888" stroke-width="1"/>
    </g>

    <!-- Copper pinion gear -->
    <g transform="translate(195, 340)" filter="url(#gearShadow)">
      <g transform="rotate(30)">
        <use href="#gear6teeth" transform="scale(0.6) translate(57.5, 97)"/>
      </g>
      <circle cx="0" cy="0" r="8" fill="url(#copperGear)" stroke="#8b4513" stroke-width="1"/>
      <circle cx="0" cy="0" r="5" fill="none" stroke="#6b3410" stroke-width="0.5"/>
      <circle cx="0" cy="0" r="2.5" fill="#6b3410"/>
    </g>

    <!-- Balance wheel with hairspring -->
    <g transform="translate(230, 370)" filter="url(#gearShadow)">
      <circle cx="0" cy="0" r="22" fill="none" stroke="url(#brassGear)" stroke-width="2.5"/>
      <circle cx="0" cy="0" r="20" fill="none" stroke="#c9952e" stroke-width="0.5"/>
      <line x1="-22" y1="0" x2="22" y2="0" stroke="#c9952e" stroke-width="1.5"/>
      <line x1="0" y1="-22" x2="0" y2="22" stroke="#c9952e" stroke-width="1.5"/>
      <circle cx="0" cy="0" r="4" fill="url(#brassGear)"/>
      <circle cx="0" cy="0" r="2" fill="#8b6914"/>
      <!-- Hairspring spiral hint -->
      <path d="M 0,-8 Q 6,-12 0,-16 Q -6,-12 0,-8" fill="none" stroke="#4a6a9a" stroke-width="0.5" opacity="0.6"/>
    </g>

    <!-- Glass reflection on aperture -->
    <ellipse cx="220" cy="360" rx="15" ry="8" fill="white" opacity="0.08" transform="rotate(-20, 220, 360)"/>
  </g>

  <!-- ==================== SUB-DIAL: POWER RESERVE (3 o'clock) ==================== -->
  <g id="subdialPowerReserve" filter="url(#innerShadow)">
    <circle cx="400" cy="300" r="35" fill="url(#subDialGrad)" stroke="#c9a84c" stroke-width="1"/>
    <circle cx="400" cy="300" r="33" fill="none" stroke="#d4c4a0" stroke-width="0.5"/>

    <!-- Power reserve ticks -->
    <line x1="400" y1="268" x2="400" y2="273" stroke="#2a2015" stroke-width="1" stroke-linecap="round" transform="rotate(0, 400, 300)"/>
    <line x1="400" y1="268" x2="400" y2="271" stroke="#2a2015" stroke-width="0.5" stroke-linecap="round" transform="rotate(15, 400, 300)"/>
    <line x1="400" y1="268" x2="400" y2="271" stroke="#2a2015" stroke-width="0.5" stroke-linecap="round" transform="rotate(30, 400, 300)"/>
    <line x1="400" y1="268" x2="400" y2="273" stroke="#2a2015" stroke-width="1" stroke-linecap="round" transform="rotate(45, 400, 300)"/>
    <line x1="400" y1="268" x2="400" y2="271" stroke="#2a2015" stroke-width="0.5" stroke-linecap="round" transform="rotate(60, 400, 300)"/>
    <line x1="400" y1="268" x2="400" y2="271" stroke="#2a2015" stroke-width="0.5" stroke-linecap="round" transform="rotate(75, 400, 300)"/>
    <line x1="400" y1="268" x2="400" y2="273" stroke="#2a2015" stroke-width="1" stroke-linecap="round" transform="rotate(90, 400, 300)"/>
    <line x1="400" y1="268" x2="400" y2="271" stroke="#2a2015" stroke-width="0.5" stroke-linecap="round" transform="rotate(105, 400, 300)"/>
    <line x1="400" y1="268" x2="400" y2="271" stroke="#2a2015" stroke-width="0.5" stroke-linecap="round" transform="rotate(120, 400, 300)"/>
    <line x1="400" y1="268" x2="400" y2="271" stroke="#2a2015" stroke-width="0.5" stroke-linecap="round" transform="rotate(135, 400, 300)"/>
    <line x1="400" y1="268" x2="400" y2="273" stroke="#2a2015" stroke-width="1" stroke-linecap="round" transform="rotate(150, 400, 300)"/>
    <line x1="400" y1="268" x2="400" y2="271" stroke="#2a2015" stroke-width="0.5" stroke-linecap="round" transform="rotate(165, 400, 300)"/>
    <line x1="400" y1="268" x2="400" y2="271" stroke="#2a2015" stroke-width="0.5" stroke-linecap="round" transform="rotate(180, 400, 300)"/>
    <line x1="400" y1="268" x2="400" y2="271" stroke="#2a2015" stroke-width="0.5" stroke-linecap="round" transform="rotate(195, 400, 300)"/>
    <line x1="400" y1="268" x2="400" y2="271" stroke="#2a2015" stroke-width="0.5" stroke-linecap="round" transform="rotate(210, 400, 300)"/>
    <line x1="400" y1="268" x2="400" y2="273" stroke="#2a2015" stroke-width="1" stroke-linecap="round" transform="rotate(225, 400, 300)"/>
    <line x1="400" y1="268" x2="400" y2="271" stroke="#2a2015" stroke-width="0.5" stroke-linecap="round" transform="rotate(240, 400, 300)"/>
    <line x1="400" y1="268" x2="400" y2="271" stroke="#2a2015" stroke-width="0.5" stroke-linecap="round" transform="rotate(255, 400, 300)"/>
    <line x1="400" y1="268" x2="400" y2="271" stroke="#2a2015" stroke-width="0.5" stroke-linecap="round" transform="rotate(270, 400, 300)"/>
    <line x1="400" y1="268" x2="400" y2="273" stroke="#2a2015" stroke-width="1" stroke-linecap="round" transform="rotate(285, 400, 300)"/>
    <line x1="400" y1="268" x2="400" y2="271" stroke="#2a2015" stroke-width="0.5" stroke-linecap="round" transform="rotate(300, 400, 300)"/>
    <line x1="400" y1="268" x2="400" y2="271" stroke="#2a2015" stroke-width="0.5" stroke-linecap="round" transform="rotate(315, 400, 300)"/>
    <line x1="400" y1="268" x2="400" y2="271" stroke="#2a2015" stroke-width="0.5" stroke-linecap="round" transform="rotate(330, 400, 300)"/>
    <line x1="400" y1="268" x2="400" y2="273" stroke="#2a2015" stroke-width="1" stroke-linecap="round" transform="rotate(345, 400, 300)"/>

    <!-- Labels -->
    <text x="400" y="285" text-anchor="middle" font-family="Georgia, serif" font-size="6" fill="#5a4a30">POWER</text>
    <text x="400" y="293" text-anchor="middle" font-family="Georgia, serif" font-size="6" fill="#5a4a30">RESERVE</text>
    <text x="400" y="320" text-anchor="middle" font-family="Georgia, serif" font-size="7" fill="#5a4a30">42H</text>

    <!-- Power reserve hand (~75%) -->
    <g transform="rotate(270, 400, 300)">
      <polygon points="399,270 401,270 400.5,280 399.5,280" fill="url(#bluedSteel)"/>
    </g>
    <circle cx="400" cy="300" r="3" fill="url(#bluedSteel)"/>
    <circle cx="400" cy="300" r="1.5" fill="#0d1b33"/>
  </g>

  <!-- ==================== SUB-DIAL: SMALL SECONDS (6 o'clock) ==================== -->
  <g id="subdialSeconds" filter="url(#innerShadow)">
    <circle cx="300" cy="400" r="35" fill="url(#subDialGrad)" stroke="#c9a84c" stroke-width="1"/>
    <circle cx="300" cy="400" r="33" fill="none" stroke="#d4c4a0" stroke-width="0.5"/>

    <!-- Small seconds ticks -->
    <line x1="300" y1="368" x2="300" y2="373" stroke="#2a2015" stroke-width="1" stroke-linecap="round" transform="rotate(0, 300, 400)"/>
    <line x1="300" y1="368" x2="300" y2="371" stroke="#2a2015" stroke-width="0.5" stroke-linecap="round" transform="rotate(30, 300, 400)"/>
    <line x1="300" y1="368" x2="300" y2="371" stroke="#2a2015" stroke-width="0.5" stroke-linecap="round" transform="rotate(60, 300, 400)"/>
    <line x1="300" y1="368" x2="300" y2="373" stroke="#2a2015" stroke-width="1" stroke-linecap="round" transform="rotate(90, 300, 400)"/>
    <line x1="300" y1="368" x2="300" y2="371" stroke="#2a2015" stroke-width="0.5" stroke-linecap="round" transform="rotate(120, 300, 400)"/>
    <line x1="300" y1="368" x2="300" y2="371" stroke="#2a2015" stroke-width="0.5" stroke-linecap="round" transform="rotate(150, 300, 400)"/>
    <line x1="300" y1="368" x2="300" y2="373" stroke="#2a2015" stroke-width="1" stroke-linecap="round" transform="rotate(180, 300, 400)"/>
    <line x1="300" y1="368" x2="300" y2="371" stroke="#2a2015" stroke-width="0.5" stroke-linecap="round" transform="rotate(210, 300, 400)"/>
    <line x1="300" y1="368" x2="300" y2="371" stroke="#2a2015" stroke-width="0.5" stroke-linecap="round" transform="rotate(240, 300, 400)"/>
    <line x1="300" y1="368" x2="300" y2="371" stroke="#2a2015" stroke-width="0.5" stroke-linecap="round" transform="rotate(270, 300, 400)"/>
    <line x1="300" y1="368" x2="300" y2="373" stroke="#2a2015" stroke-width="1" stroke-linecap="round" transform="rotate(300, 300, 400)"/>
    <line x1="300" y1="368" x2="300" y2="371" stroke="#2a2015" stroke-width="0.5" stroke-linecap="round" transform="rotate(330, 300, 400)"/>

    <!-- Small seconds hand (30 seconds = 180°) -->
    <g transform="rotate(180, 300, 400)">
      <polygon points="299.5,368 300.5,368 300,380" fill="url(#bluedSteel)"/>
    </g>
    <circle cx="300" cy="400" r="3" fill="url(#bluedSteel)"/>
    <circle cx="300" cy="400" r="1.5" fill="#0d1b33"/>
  </g>

  <!-- ==================== MAIN HANDS (Time: 10:10:30) ==================== -->
  <g id="hands" filter="url(#handShadow)">

    <!-- Hour hand — spade style, pointing at 10 (300°) -->
    <g transform="rotate(300, 300, 300)">
      <path d="M 297,300 L 298,185 Q 299,175 300,170 Q 301,175 302,185 L 303,300 Z" fill="url(#bluedSteel)"/>
      <path d="M 299,300 L 299.5,188 Q 300,180 300,176 Q 300,180 300.5,188 L 301,300 Z" fill="#4a7aaa" opacity="0.3"/>
      <path d="M 297,300 L 296,320 Q 298,325 300,326 Q 302,325 304,320 L 303,300 Z" fill="url(#bluedSteel)"/>
    </g>

    <!-- Minute hand — leaf style, pointing at 10 min (60°) -->
    <g transform="rotate(60, 300, 300)">
      <path d="M 298,300 L 299,155 Q 299.5,148 300,145 Q 300.5,148 301,155 L 302,300 Z" fill="url(#bluedSteel)"/>
      <path d="M 299.5,300 L 299.8,160 Q 300,153 300,150 Q 300,153 300.2,160 L 300.5,300 Z" fill="#4a7aaa" opacity="0.3"/>
      <path d="M 298,300 L 297,330 Q 298.5,335 300,336 Q 301.5,335 303,330 L 302,300 Z" fill="url(#bluedSteel)"/>
    </g>

    <!-- Second hand — thin blued steel, pointing at 30 sec (180°) -->
    <g transform="rotate(180, 300, 300)">
      <line x1="300" y1="340" x2="300" y2="160" stroke="url(#bluedSteel)" stroke-width="1.5" stroke-linecap="round"/>
      <circle cx="300" cy="335" r="4" fill="none" stroke="url(#bluedSteel)" stroke-width="1.5"/>
      <circle cx="300" cy="300" r="4" fill="url(#bluedSteel)"/>
      <circle cx="300" cy="300" r="2" fill="#0d1b33"/>
    </g>
  </g>

  <!-- ==================== CENTER PIN ==================== -->
  <g id="centerPin">
    <circle cx="300" cy="300" r="6" fill="url(#goldHand)" stroke="#8b6914" stroke-width="1"/>
    <circle cx="300" cy="300" r="4" fill="#d4a843"/>
    <circle cx="300" cy="300" r="2" fill="#8b6914"/>
    <circle cx="298" cy="298" r="1.5" fill="#f5e6c8" opacity="0.5"/>
  </g>

  <!-- ==================== DECORATIVE DIAL RING ==================== -->
  <g id="decorativeRing" clip-path="url(#dialClip)">
    <circle cx="300" cy="300" r="145" fill="none" stroke="#c9a84c" stroke-width="0.3" opacity="0.4"/>
    <!-- Decorative dots around dial edge -->
    <circle cx="300" cy="158" r="1" fill="#c9a84c" opacity="0.5"/>
    <circle cx="314" cy="159" r="1" fill="#c9a84c" opacity="0.5"/>
    <circle cx="328" cy="162" r="1" fill="#c9a84c" opacity="0.5"/>
    <circle cx="341" cy="167" r="1" fill="#c9a84c" opacity="0.5"/>
    <circle cx="354" cy="174" r="1" fill="#c9a84c" opacity="0.5"/>
    <circle cx="365" cy="183" r="1" fill="#c9a84c" opacity="0.5"/>
    <circle cx="375" cy="194" r="1" fill="#c9a84c" opacity="0.5"/>
    <circle cx="383" cy="207" r="1" fill="#c9a84c" opacity="0.5"/>
    <circle cx="389" cy="221" r="1" fill="#c9a84c" opacity="0.5"/>
    <circle cx="393" cy="236" r="1" fill="#c9a84c" opacity="0.5"/>
    <circle cx="395" cy="251" r="1" fill="#c9a84c" opacity="0.5"/>
    <circle cx="395" cy="267" r="1" fill="#c9a84c" opacity="0.5"/>
    <circle cx="393" cy="282" r="1" fill="#c9a84c" opacity="0.5"/>
    <circle cx="389" cy="297" r="1" fill="#c9a84c" opacity="0.5"/>
    <circle cx="383" cy="311" r="1" fill="#c9a84c" opacity="0.5"/>
    <circle cx="375" cy="324" r="1" fill="#c9a84c" opacity="0.5"/>
    <circle cx="365" cy="335" r="1" fill="#c9a84c" opacity="0.5"/>
    <circle cx="354" cy="344" r="1" fill="#c9a84c" opacity="0.5"/>
    <circle cx="341" cy="351" r="1" fill="#c9a84c" opacity="0.5"/>
    <circle cx="328" cy="356" r="1" fill="#c9a84c" opacity="0.5"/>
    <circle cx="314" cy="359" r="1" fill="#c9a84c" opacity="0.5"/>
    <circle cx="300" cy="360" r="1" fill="#c9a84c" opacity="0.5"/>
    <circle cx="286" cy="359" r="1" fill="#c9a84c" opacity="0.5"/>
    <circle cx="272" cy="356" r="1" fill="#c9a84c" opacity="0.5"/>
    <circle cx="259" cy="351" r="1" fill="#c9a84c" opacity="0.5"/>
    <circle cx="246" cy="344" r="1" fill="#c9a84c" opacity="0.5"/>
    <circle cx="235" cy="335" r="1" fill="#c9a84c" opacity="0.5"/>
    <circle cx="225" cy="324" r="1" fill="#c9a84c" opacity="0.5"/>
    <circle cx="217" cy="311" r="1" fill="#c9a84c" opacity="0.5"/>
    <circle cx="211" cy="297" r="1" fill="#c9a84c" opacity="0.5"/>
    <circle cx="207" cy="282" r="1" fill="#c9a84c" opacity="0.5"/>
    <circle cx="205" cy="267" r="1" fill="#c9a84c" opacity="0.5"/>
    <circle cx="205" cy="251" r="1" fill="#c9a84c" opacity="0.5"/>
    <circle cx="207" cy="236" r="1" fill="#c9a84c" opacity="0.5"/>
    <circle cx="211" cy="221" r="1" fill="#c9a84c" opacity="0.5"/>
    <circle cx="217" cy="207" r="1" fill="#c9a84c" opacity="0.5"/>
    <circle cx="225" cy="194" r="1" fill="#c9a84c" opacity="0.5"/>
    <circle cx="235" cy="183" r="1" fill="#c9a84c" opacity="0.5"/>
    <circle cx="246" cy="174" r="1" fill="#c9a84c" opacity="0.5"/>
    <circle cx="259" cy="167" r="1" fill="#c9a84c" opacity="0.5"/>
    <circle cx="272" cy="162" r="1" fill="#c9a84c" opacity="0.5"/>
    <circle cx="286" cy="159" r="1" fill="#c9a84c" opacity="0.5"/>
  </g>

  <!-- ==================== GLASS REFLECTION ==================== -->
  <g id="glassReflection" opacity="0.06">
    <ellipse cx="250" cy="230" rx="60" ry="40" fill="white" transform="rotate(-30, 250, 230)"/>
    <ellipse cx="350" cy="380" rx="30" ry="20" fill="white" transform="rotate(20, 350, 380)"/>
  </g>

</svg>
